<svg xmlns="http://www.w3.org/2000/svg" xmlns:xlink="http://www.w3.org/1999/xlink" viewBox="0 0 2815.75 2800"><defs><style>.cls-1{opacity:0.3;fill:url(#linear-gradient);}.cls-2{fill:url(#linear-gradient-2);}.cls-3{fill:url(#linear-gradient-3);}.cls-4{fill:url(#linear-gradient-4);}.cls-5{fill:url(#linear-gradient-5);}.cls-6{fill:url(#linear-gradient-6);}.cls-22,.cls-28,.cls-7,.cls-8,.cls-99{fill:#fff;}.cls-7{opacity:0.8;}.cls-9{fill:url(#linear-gradient-7);}.cls-10{fill:url(#linear-gradient-8);}.cls-11{fill:url(#linear-gradient-9);}.cls-12{fill:url(#linear-gradient-10);}.cls-13{fill:url(#linear-gradient-11);}.cls-14{fill:url(#linear-gradient-12);}.cls-15{fill:url(#linear-gradient-13);}.cls-16{fill:url(#linear-gradient-14);}.cls-17{fill:url(#linear-gradient-15);}.cls-18{fill:url(#linear-gradient-16);}.cls-19{fill:url(#linear-gradient-17);}.cls-20{fill:url(#linear-gradient-18);}.cls-21{fill:url(#linear-gradient-19);}.cls-22{opacity:0.57;}.cls-23{opacity:0.76;}.cls-24{fill:url(#linear-gradient-20);}.cls-25{fill:url(#linear-gradient-21);}.cls-26{fill:url(#linear-gradient-22);}.cls-27{fill:url(#linear-gradient-23);}.cls-28{opacity:0.2;}.cls-29,.cls-30,.cls-31,.cls-33,.cls-34,.cls-35,.cls-37,.cls-38,.cls-39,.cls-40,.cls-41,.cls-42{opacity:0.63;}.cls-29{fill:url(#linear-gradient-24);}.cls-30{fill:url(#linear-gradient-25);}.cls-31{fill:url(#linear-gradient-26);}.cls-32{fill:url(#linear-gradient-27);}.cls-33{fill:url(#linear-gradient-28);}.cls-34{fill:url(#linear-gradient-29);}.cls-35{fill:url(#linear-gradient-30);}.cls-36{fill:url(#linear-gradient-31);}.cls-37{fill:url(#linear-gradient-32);}.cls-38{fill:url(#linear-gradient-33);}.cls-39{fill:url(#linear-gradient-34);}.cls-40{fill:url(#linear-gradient-35);}.cls-41{fill:url(#linear-gradient-36);}.cls-42{fill:url(#linear-gradient-37);}.cls-43{fill:url(#linear-gradient-38);}.cls-44{fill:url(#linear-gradient-39);}.cls-45{fill:url(#linear-gradient-40);}.cls-46{fill:url(#linear-gradient-41);}.cls-47{fill:url(#linear-gradient-42);}.cls-48{fill:url(#linear-gradient-43);}.cls-49{fill:url(#linear-gradient-44);}.cls-50{fill:url(#linear-gradient-45);}.cls-51{fill:url(#linear-gradient-46);}.cls-52{fill:url(#linear-gradient-47);}.cls-53{fill:url(#linear-gradient-48);}.cls-54{fill:url(#linear-gradient-49);}.cls-55{fill:url(#linear-gradient-50);}.cls-56{fill:url(#linear-gradient-51);}.cls-57{fill:url(#linear-gradient-52);}.cls-58{fill:url(#linear-gradient-53);}.cls-59{opacity:0.16;fill:url(#linear-gradient-54);}.cls-60{fill:url(#linear-gradient-55);}.cls-61{fill:url(#linear-gradient-56);}.cls-62{fill:url(#linear-gradient-57);}.cls-63{fill:url(#linear-gradient-58);}.cls-64{fill:url(#linear-gradient-59);}.cls-65{fill:url(#linear-gradient-60);}.cls-66{fill:url(#linear-gradient-61);}.cls-67{fill:url(#linear-gradient-62);}.cls-68{fill:url(#linear-gradient-63);}.cls-69{fill:url(#linear-gradient-64);}.cls-70{fill:url(#linear-gradient-65);}.cls-71{fill:url(#linear-gradient-66);}.cls-72{fill:url(#linear-gradient-67);}.cls-73{fill:url(#linear-gradient-68);}.cls-74{fill:url(#linear-gradient-69);}.cls-75{fill:url(#linear-gradient-70);}.cls-76{fill:url(#linear-gradient-71);}.cls-77{fill:url(#linear-gradient-72);}.cls-78{fill:url(#linear-gradient-73);}.cls-79{fill:url(#linear-gradient-74);}.cls-80{fill:url(#linear-gradient-75);}.cls-81{fill:url(#linear-gradient-76);}.cls-82{fill:url(#linear-gradient-77);}.cls-83{fill:url(#linear-gradient-78);}.cls-84{fill:url(#linear-gradient-79);}.cls-85{fill:url(#linear-gradient-80);}.cls-86{fill:url(#linear-gradient-81);}.cls-87{fill:url(#linear-gradient-82);}.cls-88{fill:url(#linear-gradient-83);}.cls-89{fill:url(#linear-gradient-84);}.cls-90{fill:url(#linear-gradient-85);}.cls-91{fill:url(#linear-gradient-86);}.cls-92{fill:url(#linear-gradient-87);}.cls-93{fill:url(#linear-gradient-88);}.cls-94{fill:url(#linear-gradient-89);}.cls-95{fill:url(#linear-gradient-90);}.cls-96{fill:url(#linear-gradient-91);}.cls-97{fill:url(#linear-gradient-92);}.cls-98{fill:url(#linear-gradient-93);}.cls-99{opacity:0.78;}.cls-100{fill:url(#linear-gradient-94);}.cls-101{fill:url(#linear-gradient-95);}.cls-102{fill:url(#linear-gradient-96);}.cls-103{fill:url(#linear-gradient-97);}.cls-104{fill:url(#linear-gradient-98);}.cls-105{fill:url(#linear-gradient-99);}.cls-106{fill:url(#linear-gradient-100);}.cls-107{fill:url(#linear-gradient-101);}.cls-108{fill:url(#linear-gradient-102);}.cls-109{fill:url(#linear-gradient-103);}</style><linearGradient id="linear-gradient" x1="3046.66" y1="2850.34" x2="946.26" y2="1012.49" gradientUnits="userSpaceOnUse"><stop offset="0" stop-color="#b37cff"/><stop offset="1" stop-color="#f895e7"/></linearGradient><linearGradient id="linear-gradient-2" x1="28.09" y1="126.41" x2="912.42" y2="1206.51" gradientUnits="userSpaceOnUse"><stop offset="0" stop-color="#cb236d"/><stop offset="1" stop-color="#4c246d"/></linearGradient><linearGradient id="linear-gradient-3" x1="-2245.4" y1="499.95" x2="-5391.53" y2="2749.25" gradientTransform="matrix(-1, 0, 0, 1, -2286.33, 0)" xlink:href="#linear-gradient-2"/><linearGradient id="linear-gradient-4" x1="505.54" y1="1745.43" x2="559.55" y2="894.85" gradientUnits="userSpaceOnUse"><stop offset="0" stop-color="#a737d5"/><stop offset="1" stop-color="#ef497a"/></linearGradient><linearGradient id="linear-gradient-5" x1="-2520.95" y1="1163.71" x2="-4307.38" y2="2552.34" gradientTransform="matrix(-1, 0, 0, 1, -2286.33, 0)" xlink:href="#linear-gradient-2"/><linearGradient id="linear-gradient-6" x1="2364.44" y1="540.23" x2="58.94" y2="2997.75" gradientUnits="userSpaceOnUse"><stop offset="0" stop-color="#53d8ff"/><stop offset="1" stop-color="#3840f7"/></linearGradient><linearGradient id="linear-gradient-7" x1="1342.34" y1="1496.36" x2="1592.57" y2="-863.93" xlink:href="#linear-gradient-6"/><linearGradient id="linear-gradient-8" x1="1440.59" y1="1506.24" x2="1691.05" y2="-856.25" xlink:href="#linear-gradient-6"/><linearGradient id="linear-gradient-9" x1="1523.77" y1="1513.97" x2="1773.85" y2="-844.89" xlink:href="#linear-gradient-6"/><linearGradient id="linear-gradient-10" x1="1632.1" y1="1525.57" x2="1883.09" y2="-841.89" xlink:href="#linear-gradient-6"/><linearGradient id="linear-gradient-11" x1="1714.14" y1="1532.71" x2="1964.27" y2="-826.59" xlink:href="#linear-gradient-6"/><linearGradient id="linear-gradient-12" x1="1810.92" y1="1542.3" x2="2061.11" y2="-817.68" xlink:href="#linear-gradient-6"/><linearGradient id="linear-gradient-13" x1="1907.93" y1="1551.97" x2="2158.25" y2="-809.16" xlink:href="#linear-gradient-6"/><linearGradient id="linear-gradient-14" x1="1989.49" y1="1559.56" x2="2239.51" y2="-798.82" xlink:href="#linear-gradient-6"/><linearGradient id="linear-gradient-15" x1="2085.83" y1="1569.06" x2="2335.89" y2="-789.69" xlink:href="#linear-gradient-6"/><linearGradient id="linear-gradient-16" x1="2183.41" y1="1578.73" x2="2433.53" y2="-780.51" xlink:href="#linear-gradient-6"/><linearGradient id="linear-gradient-17" x1="2289.89" y1="1590.46" x2="2540.99" y2="-778.1" xlink:href="#linear-gradient-6"/><linearGradient id="linear-gradient-18" x1="2375.83" y1="1597.79" x2="2626.07" y2="-762.65" xlink:href="#linear-gradient-6"/><linearGradient id="linear-gradient-19" x1="1550.55" y1="187.83" x2="-779.98" y2="3306.24" xlink:href="#linear-gradient-6"/><linearGradient id="linear-gradient-20" x1="1799.1" y1="2020.32" x2="3276.98" y2="669.11" xlink:href="#linear-gradient-6"/><linearGradient id="linear-gradient-21" x1="2136.25" y1="1103.94" x2="1143.91" y2="4344.24" xlink:href="#linear-gradient-6"/><linearGradient id="linear-gradient-22" x1="371.87" y1="2073.75" x2="1555.44" y2="2073.75" gradientUnits="userSpaceOnUse"><stop offset="0" stop-color="#2b3582"/><stop offset="1" stop-color="#150e42"/></linearGradient><linearGradient id="linear-gradient-23" x1="875.96" y1="1960.3" x2="986.29" y2="1502.98" xlink:href="#linear-gradient-4"/><linearGradient id="linear-gradient-24" x1="267.13" y1="2277.54" x2="1060.76" y2="1513.48" xlink:href="#linear-gradient-6"/><linearGradient id="linear-gradient-25" x1="398.16" y1="2413.65" x2="1191.8" y2="1649.59" xlink:href="#linear-gradient-6"/><linearGradient id="linear-gradient-26" x1="524.16" y1="2544.52" x2="1317.79" y2="1780.46" xlink:href="#linear-gradient-6"/><linearGradient id="linear-gradient-27" x1="1425.76" y1="1928.3" x2="993.99" y2="2437.4" gradientUnits="userSpaceOnUse"><stop offset="0" stop-color="#e40045"/><stop offset="1" stop-color="#5c0e16"/></linearGradient><linearGradient id="linear-gradient-28" x1="361.35" y1="2375.42" x2="1154.99" y2="1611.36" xlink:href="#linear-gradient-6"/><linearGradient id="linear-gradient-29" x1="492.39" y1="2511.52" x2="1286.03" y2="1747.47" xlink:href="#linear-gradient-6"/><linearGradient id="linear-gradient-30" x1="618.39" y1="2642.4" x2="1412.02" y2="1878.34" xlink:href="#linear-gradient-6"/><linearGradient id="linear-gradient-31" x1="749.43" y1="2778.51" x2="1543.06" y2="2014.45" xlink:href="#linear-gradient-6"/><linearGradient id="linear-gradient-32" x1="444.81" y1="2462.1" x2="1238.44" y2="1698.04" xlink:href="#linear-gradient-6"/><linearGradient id="linear-gradient-33" x1="575.84" y1="2598.21" x2="1369.48" y2="1834.15" xlink:href="#linear-gradient-6"/><linearGradient id="linear-gradient-34" x1="701.84" y1="2729.08" x2="1495.48" y2="1965.02" xlink:href="#linear-gradient-6"/><linearGradient id="linear-gradient-35" x1="536.42" y1="2557.26" x2="1330.05" y2="1793.2" xlink:href="#linear-gradient-6"/><linearGradient id="linear-gradient-36" x1="667.46" y1="2693.37" x2="1461.09" y2="1929.31" xlink:href="#linear-gradient-6"/><linearGradient id="linear-gradient-37" x1="793.45" y1="2824.24" x2="1587.09" y2="2060.18" xlink:href="#linear-gradient-6"/><linearGradient id="linear-gradient-38" x1="1281.42" y1="2572.01" x2="1542.68" y2="2192.45" xlink:href="#linear-gradient-6"/><linearGradient id="linear-gradient-39" x1="2312.53" y1="1727.5" x2="2192.23" y2="1997.23" xlink:href="#linear-gradient-2"/><linearGradient id="linear-gradient-40" x1="-3965.18" y1="1959.94" x2="-3823.91" y2="1959.94" gradientTransform="matrix(-1, 0, 0, 1, -1696.03, 0)" xlink:href="#linear-gradient-22"/><linearGradient id="linear-gradient-41" x1="-3951.75" y1="1920.16" x2="-3910.8" y2="1920.16" gradientTransform="matrix(-1, 0, 0, 1, -1696.03, 0)" gradientUnits="userSpaceOnUse"><stop offset="0" stop-color="#f9b776"/><stop offset="1" stop-color="#f47960"/></linearGradient><linearGradient id="linear-gradient-42" x1="2626.96" y1="1705.43" x2="2526.4" y2="1996.78" xlink:href="#linear-gradient-2"/><linearGradient id="linear-gradient-43" x1="-4254.56" y1="1942.4" x2="-4172.79" y2="1942.4" gradientTransform="matrix(-1, 0, 0, 1, -1696.03, 0)" xlink:href="#linear-gradient-22"/><linearGradient id="linear-gradient-44" x1="-4212.06" y1="1886.03" x2="-4163.12" y2="1886.03" xlink:href="#linear-gradient-41"/><linearGradient id="linear-gradient-45" x1="2871.46" y1="548.21" x2="2211.75" y2="1828.18" xlink:href="#linear-gradient-6"/><linearGradient id="linear-gradient-46" x1="-3596.67" y1="864.52" x2="-4718.47" y2="1840.21" gradientTransform="matrix(-1, 0, 0, 1, -1696.03, 0)" xlink:href="#linear-gradient-2"/><linearGradient id="linear-gradient-47" x1="-4047.15" y1="1704.81" x2="-4023.7" y2="1657.92" gradientTransform="matrix(-1, 0, 0, 1, -1696.03, 0)" xlink:href="#linear-gradient-6"/><linearGradient id="linear-gradient-48" x1="-3987.87" y1="1172.75" x2="-4162.06" y2="1327.01" xlink:href="#linear-gradient-41"/><linearGradient id="linear-gradient-49" x1="-3690.19" y1="761.13" x2="-4806.93" y2="1732.41" gradientTransform="matrix(-1, 0, 0, 1, -1696.03, 0)" xlink:href="#linear-gradient-2"/><linearGradient id="linear-gradient-50" x1="-3514.64" y1="962.97" x2="-4631.38" y2="1934.25" gradientTransform="matrix(-1, 0, 0, 1, -1696.03, 0)" xlink:href="#linear-gradient-2"/><linearGradient id="linear-gradient-51" x1="-3661.31" y1="1187.34" x2="-3524.12" y2="1187.34" xlink:href="#linear-gradient-41"/><linearGradient id="linear-gradient-52" x1="-3794.66" y1="820.72" x2="-3796.16" y2="1076.91" xlink:href="#linear-gradient-41"/><linearGradient id="linear-gradient-53" x1="-4175.97" y1="1287.84" x2="-3457.58" y2="1287.84" gradientTransform="matrix(-1, 0, 0, 1, -1696.03, 0)" xlink:href="#linear-gradient-22"/><linearGradient id="linear-gradient-54" x1="-3497.11" y1="969.29" x2="-2837.7" y2="969.29" gradientTransform="matrix(-1, 0, 0, 1, -1696.03, 0)" xlink:href="#linear-gradient"/><linearGradient id="linear-gradient-55" x1="-4480.09" y1="1170.98" x2="-3460.5" y2="-24.94" gradientTransform="matrix(-1, 0, 0, 1, -2836.77, 0)" xlink:href="#linear-gradient-22"/><linearGradient id="linear-gradient-56" x1="-3928.28" y1="1785.51" x2="-4054.38" y2="1952.34" gradientTransform="matrix(-0.99, -0.14, -0.14, 0.99, -1617.35, -1549.48)" xlink:href="#linear-gradient-41"/><linearGradient id="linear-gradient-57" x1="-4967.24" y1="806.05" x2="-4529.7" y2="861.37" gradientTransform="matrix(-1, 0, 0, 1, -2836.77, 0)" xlink:href="#linear-gradient-22"/><linearGradient id="linear-gradient-58" x1="-4112.97" y1="1917.62" x2="-4011.83" y2="1813.85" gradientTransform="matrix(-0.99, -0.14, -0.14, 0.99, -1617.35, -1549.48)" xlink:href="#linear-gradient-41"/><linearGradient id="linear-gradient-59" x1="-3919.07" y1="1250.43" x2="-4093.27" y2="1404.69" xlink:href="#linear-gradient-41"/><linearGradient id="linear-gradient-60" x1="-3538.7" y1="1171.23" x2="-3489.57" y2="1171.23" xlink:href="#linear-gradient-41"/><linearGradient id="linear-gradient-61" x1="6440.47" y1="2679.24" x2="5975.86" y2="3184.61" gradientTransform="translate(-5986.4)" xlink:href="#linear-gradient-22"/><linearGradient id="linear-gradient-62" x1="6289.66" y1="2716.77" x2="6330.93" y2="2716.77" gradientTransform="translate(-5986.4)" xlink:href="#linear-gradient-41"/><linearGradient id="linear-gradient-63" x1="6107" y1="2590.51" x2="6773.63" y2="1766.71" gradientTransform="translate(-5986.4)" xlink:href="#linear-gradient-22"/><linearGradient id="linear-gradient-64" x1="6336.24" y1="2583.42" x2="5871.63" y2="3088.78" gradientTransform="translate(-5986.4)" xlink:href="#linear-gradient-22"/><linearGradient id="linear-gradient-65" x1="6140.93" y1="2714.66" x2="6176.56" y2="2714.66" gradientTransform="translate(-5986.4)" xlink:href="#linear-gradient-41"/><linearGradient id="linear-gradient-66" x1="6041.64" y1="2537.61" x2="6708.26" y2="1713.82" gradientTransform="translate(-5986.4)" xlink:href="#linear-gradient-22"/><linearGradient id="linear-gradient-67" x1="-7.64" y1="2219.32" x2="494.34" y2="1538.47" xlink:href="#linear-gradient-6"/><linearGradient id="linear-gradient-68" x1="6459.49" y1="1640.12" x2="6670.32" y2="1640.12" gradientTransform="translate(-5986.4)" xlink:href="#linear-gradient-41"/><linearGradient id="linear-gradient-69" x1="2930.18" y1="1604.77" x2="3071.65" y2="1926.67" gradientTransform="matrix(-1, 0, 0, 1, 3567.13, 0)" xlink:href="#linear-gradient-41"/><linearGradient id="linear-gradient-70" x1="6669.31" y1="1497.57" x2="6728.34" y2="1406.81" gradientTransform="translate(-5986.4)" xlink:href="#linear-gradient-41"/><linearGradient id="linear-gradient-71" x1="-127.1" y1="2131.24" x2="374.88" y2="1450.4" xlink:href="#linear-gradient-6"/><linearGradient id="linear-gradient-72" x1="5998.13" y1="1938.76" x2="6264.95" y2="1938.76" gradientTransform="translate(-5986.4)" xlink:href="#linear-gradient-41"/><linearGradient id="linear-gradient-73" x1="6607.3" y1="1871.58" x2="6304.31" y2="1896.53" gradientTransform="translate(-5986.4)" xlink:href="#linear-gradient-22"/><linearGradient id="linear-gradient-74" x1="6437.52" y1="1652.71" x2="6406.28" y2="1789.91" gradientTransform="translate(-5986.4)" xlink:href="#linear-gradient-6"/><linearGradient id="linear-gradient-75" x1="6421.17" y1="1710.26" x2="6406.23" y2="1799.92" gradientTransform="translate(-5986.4)" xlink:href="#linear-gradient-6"/><linearGradient id="linear-gradient-76" x1="6245.14" y1="1910.78" x2="6328.26" y2="1910.78" gradientTransform="translate(-5986.4)" xlink:href="#linear-gradient-41"/><linearGradient id="linear-gradient-77" x1="6203.01" y1="1653.52" x2="6308.5" y2="1653.52" gradientTransform="translate(-5986.4)" xlink:href="#linear-gradient-41"/><linearGradient id="linear-gradient-78" x1="-1107.2" y1="2768.9" x2="-1146.62" y2="2638.89" gradientTransform="matrix(0.75, -0.67, 0.67, 0.75, -670.65, -1216.48)" xlink:href="#linear-gradient-41"/><linearGradient id="linear-gradient-79" x1="-1142.77" y1="2542.37" x2="-1109.79" y2="2730.45" gradientTransform="matrix(0.75, -0.67, 0.67, 0.75, -670.65, -1216.48)" xlink:href="#linear-gradient-22"/><linearGradient id="linear-gradient-80" x1="-1147.5" y1="2768.3" x2="-1182.97" y2="2651.32" gradientTransform="matrix(0.75, -0.67, 0.67, 0.75, -670.65, -1216.48)" xlink:href="#linear-gradient-41"/><linearGradient id="linear-gradient-81" x1="3224.07" y1="1197.67" x2="1948.21" y2="2498.29" xlink:href="#linear-gradient-6"/><linearGradient id="linear-gradient-82" x1="3303.75" y1="1275.82" x2="2027.88" y2="2576.44" xlink:href="#linear-gradient-6"/><linearGradient id="linear-gradient-83" x1="3506.73" y1="1474.94" x2="2230.86" y2="2775.56" xlink:href="#linear-gradient-6"/><linearGradient id="linear-gradient-84" x1="3367.51" y1="1338.38" x2="2091.64" y2="2639" xlink:href="#linear-gradient-6"/><linearGradient id="linear-gradient-85" x1="3172.77" y1="1122.68" x2="1878.49" y2="2442.07" gradientTransform="translate(4612.51 4012.01) rotate(-180)" xlink:href="#linear-gradient-6"/><linearGradient id="linear-gradient-86" x1="3263.05" y1="1235.89" x2="1987.18" y2="2536.51" xlink:href="#linear-gradient-6"/><linearGradient id="linear-gradient-87" x1="3393.37" y1="1363.74" x2="2117.5" y2="2664.36" xlink:href="#linear-gradient-6"/><linearGradient id="linear-gradient-88" x1="3525.73" y1="1493.58" x2="2249.86" y2="2794.2" xlink:href="#linear-gradient-6"/><linearGradient id="linear-gradient-89" x1="3656.64" y1="1622" x2="2380.77" y2="2922.62" xlink:href="#linear-gradient-6"/><linearGradient id="linear-gradient-90" x1="2628.55" y1="-348.08" x2="1960.24" y2="1022.3" gradientUnits="userSpaceOnUse"><stop offset="0" stop-color="#fdf53f"/><stop offset="1" stop-color="#d93c65"/></linearGradient><linearGradient id="linear-gradient-91" x1="2823.69" y1="-450.97" x2="2388.29" y2="460.32" xlink:href="#linear-gradient-90"/><linearGradient id="linear-gradient-92" x1="67.09" y1="770.64" x2="219.59" y2="593.62" gradientTransform="translate(879.81 697.86) rotate(57.17)" xlink:href="#linear-gradient-90"/><linearGradient id="linear-gradient-93" x1="305.77" y1="464.52" x2="-145.19" y2="1145.79" gradientTransform="translate(793.61 644.25) rotate(47.94)" xlink:href="#linear-gradient-90"/><linearGradient id="linear-gradient-94" x1="-622.26" y1="463.8" x2="-850.95" y2="847.74" gradientTransform="translate(1335.99 882.94) rotate(18.12)" xlink:href="#linear-gradient-90"/><linearGradient id="linear-gradient-95" x1="48.13" y1="479.42" x2="297.02" y2="190.53" gradientTransform="translate(312.58 604.15) rotate(2.94)" xlink:href="#linear-gradient-90"/><linearGradient id="linear-gradient-96" x1="437.65" y1="-20.17" x2="-298.32" y2="1091.67" gradientTransform="translate(539.55 456.12) rotate(47.94)" xlink:href="#linear-gradient-90"/><linearGradient id="linear-gradient-97" x1="-609.01" y1="-11.83" x2="-982.24" y2="614.76" gradientTransform="translate(1335.99 882.94) rotate(18.12)" xlink:href="#linear-gradient-90"/><linearGradient id="linear-gradient-98" x1="307.78" y1="819.96" x2="563.89" y2="522.69" gradientTransform="translate(856.8 380.72) rotate(47.94)" xlink:href="#linear-gradient-90"/><linearGradient id="linear-gradient-99" x1="708.6" y1="305.88" x2="-48.7" y2="1449.95" gradientTransform="translate(856.8 380.72) rotate(47.94)" xlink:href="#linear-gradient-90"/><linearGradient id="linear-gradient-100" x1="-261.17" y1="233.91" x2="-645.22" y2="878.66" gradientTransform="translate(1335.99 882.94) rotate(18.12)" xlink:href="#linear-gradient-90"/><linearGradient id="linear-gradient-101" x1="502.63" y1="360.93" x2="707.45" y2="123.19" gradientTransform="translate(1058.64 38.7) rotate(83.85)" xlink:href="#linear-gradient-90"/><linearGradient id="linear-gradient-102" x1="823.19" y1="-50.21" x2="217.52" y2="864.77" gradientTransform="translate(628.37 151.26) rotate(47.94)" xlink:href="#linear-gradient-90"/><linearGradient id="linear-gradient-103" x1="-250.67" y1="-153.98" x2="-557.82" y2="361.67" gradientTransform="translate(1335.99 882.94) rotate(18.12)" xlink:href="#linear-gradient-90"/></defs><title>expense</title><g id="Layer_2" data-name="Layer 2"><g id="Illustration"><path class="cls-1" d="M2697.73,1891.62c-273.19,633.68-1000.9,988.67-1632,892.91-102.69-15.58-384.21-62-633.46-281C-47.52,2082-150.13,1247.34,236.92,659.11,518.63,231,1023.63-11.71,1503.47.43c103.36,2.62,499.47,18.73,847.58,301.51,51.13,41.53,163.91,140.23,265.54,296.8C2855.26,966.41,2875.77,1478.65,2697.73,1891.62Z"/><path class="cls-2" d="M749.34,1681.93s8.31-349.39-152.61-442.9-466.9-152-478.37-653.67c-6.72-293.72-14-422.13-18.86-478.13a33.07,33.07,0,0,1,39.06-35.41C291,100.53,786.08,218.71,889.89,556.65,1013,957.27,749.34,1681.93,749.34,1681.93Z"/><path class="cls-3" d="M256.43,211.4c167.3,149.21,360.75,413.28,463.86,677.35,13.24,43.52,52,136.07,68.77,300.51,15,137.14,7.55,282.06-10.66,378a11.17,11.17,0,0,1-13.06,8.9c-10.43-2-9.05-13.2-9-12.84,20.79-163.9,12.16-367.9-35.49-552-60.87-226-196.65-445.13-337.09-631l-14.45-18.3C260.56,222.32,237.65,221.3,247.82,211.56A6.36,6.36,0,0,1,256.43,211.4Z"/><path class="cls-4" d="M1008,2353.68c21.77,10.68-206.12-275.9-277.51-726-33.64-212.09-34.08-477.83-154.9-580.23C475,962.22,132.83,1016,20.87,1036.47a16.79,16.79,0,0,0-7.81,29.38c53.69,45.09,168.54,151.44,198.47,258.63,39.44,141.29,173.76,231.15,294,255.47s187.15,47.92,245.73,240.23S946.09,2323.35,1008,2353.68Z"/><path class="cls-5" d="M178.33,1096.17c142.84,6,296.17,71.14,374,193.37l7.34,11.66c17,27.35,113.1,221.76,166.49,382.91a3.85,3.85,0,0,1-2.43,4.85,3.91,3.91,0,0,1-4.8-2.3c-37.2-91-90.63-206.46-133.18-292.78-45.63-94.19-77.56-158-181.65-219.08-115.85-65.8-226.52-72.57-226.19-72.5a3.07,3.07,0,0,1,.44-6.13Z"/><path class="cls-6" d="M2536.8,2690.64H679.2c-60.46,0-109.81-49.52-111-111.4L521.85,167.73c-1.2-62.65,47.37-114.47,108.58-115.84l1904-42.53C2596.63,8,2647.82,59.24,2647.82,123V2577C2647.82,2639.76,2598.12,2690.64,2536.8,2690.64Z"/><rect class="cls-7" x="680.13" y="347.14" width="1841.02" height="2225.27" rx="19.8"/><rect class="cls-8" x="1431.74" y="444.25" width="1017.63" height="80.23"/><rect class="cls-8" x="1431.74" y="558.26" width="1017.63" height="46.45"/><rect class="cls-8" x="1431.74" y="638.49" width="1017.63" height="46.45"/><rect class="cls-8" x="1431.74" y="718.72" width="1017.63" height="46.45"/><rect class="cls-8" x="811.03" y="1449.22" width="582.71" height="80.23"/><rect class="cls-8" x="811.03" y="1563.22" width="582.71" height="46.45"/><rect class="cls-8" x="811.03" y="1643.45" width="582.71" height="46.45"/><rect class="cls-8" x="811.03" y="1723.68" width="582.71" height="46.45"/><rect class="cls-9" x="1348.77" y="1046.87" width="56.79" height="241.89"/><rect class="cls-10" x="1443.66" y="1130.01" width="56.79" height="158.75"/><rect class="cls-11" x="1538.56" y="924.55" width="56.79" height="364.21"/><rect class="cls-12" x="1633.45" y="1201.26" width="56.79" height="87.5"/><rect class="cls-13" x="1728.34" y="973.24" width="56.79" height="315.52"/><rect class="cls-14" x="1823.23" y="1027.87" width="56.79" height="260.89"/><rect class="cls-15" x="1918.12" y="1087.25" width="56.79" height="201.51"/><rect class="cls-16" x="2013.01" y="850.92" width="56.79" height="437.84"/><rect class="cls-17" x="2107.9" y="897.24" width="56.79" height="391.52"/><rect class="cls-18" x="2202.79" y="967.31" width="56.79" height="321.45"/><rect class="cls-19" x="2297.68" y="1209.38" width="56.79" height="79.38"/><rect class="cls-20" x="2392.58" y="1055.19" width="56.79" height="233.57"/><rect class="cls-8" x="811.03" y="2424.62" width="1638.34" height="46.45"/><rect class="cls-21" x="811.03" y="444.25" width="464.64" height="844.5" rx="19.55"/><rect class="cls-22" x="815.25" y="1854.58" width="578.49" height="498.26" rx="17"/><g class="cls-23"><path class="cls-24" d="M1971.92,1898.52a24,24,0,0,1-23.62-28.28L2020.75,1469a24,24,0,0,1,28.07-19.33c181.82,34.2,322.72,180,350.61,362.75a24,24,0,0,1-20.29,27.38l-403.77,58.52A23.55,23.55,0,0,1,1971.92,1898.52Z"/><path class="cls-25" d="M1865.6,2344.39c-196.68,0-356.7-160-356.7-356.7s160-356.7,356.7-356.7a358.64,358.64,0,0,1,66.27,6.25,24,24,0,0,1,19.18,27.86l-52.47,290.62L2191,1913.33a24.05,24.05,0,0,1,27.18,20.14,360.47,360.47,0,0,1,4.1,54.22C2222.3,2184.38,2062.29,2344.39,1865.6,2344.39Z"/></g><path class="cls-26" d="M391.23,1446.57c-6.24,222.54-26.45,990.17-16.8,1262.19,1,28.82,27.12,51.95,59.67,52.89,161,4.67,751.17,16.49,1014.5,6.71,54.84-2,98.46-41.37,99.6-90,5.47-233.59,17.54-890.57-11.15-1191.54-3.44-36.06-35.41-64.77-76.08-68.38C1285.64,1403,692.92,1365,465.42,1378.07,424.39,1380.43,392.24,1410.18,391.23,1446.57Z"/><rect class="cls-27" x="437.46" y="1479.2" width="1032.03" height="319.56" rx="65.48"/><path class="cls-28" d="M1423.54,1543.61a43.14,43.14,0,0,0-30.34-13.15l-843.14-13.4a43.16,43.16,0,0,0-43.66,39.13l-17.52,187.06c-1.44,15.31,23.76,28.21,55.88,28.6l828.93,10c32.07.39,58.59-11.84,58.85-27.15l3.13-180.38A43.17,43.17,0,0,0,1423.54,1543.61Z"/><path class="cls-29" d="M662.73,1990a60.25,60.25,0,0,1-60.25,60.25H529.14A60.25,60.25,0,0,1,468.9,1990h0a60.24,60.24,0,0,1,60.24-60.24h73.34A60.24,60.24,0,0,1,662.73,1990Z"/><path class="cls-30" d="M935.14,1990a60.25,60.25,0,0,1-60.24,60.25H801.56A60.25,60.25,0,0,1,741.31,1990h0a60.24,60.24,0,0,1,60.25-60.24H874.9A60.24,60.24,0,0,1,935.14,1990Z"/><path class="cls-31" d="M1197.08,1990a60.25,60.25,0,0,1-60.24,60.25h-73.35a60.25,60.25,0,0,1-60.24-60.25h0a60.24,60.24,0,0,1,60.24-60.24h73.35a60.24,60.24,0,0,1,60.24,60.24Z"/><path class="cls-32" d="M1462.61,1998.83a61.22,61.22,0,0,1-61.22,61.22H1330.5a61.22,61.22,0,0,1-61.22-61.22h0a61.22,61.22,0,0,1,61.22-61.23h70.89a61.22,61.22,0,0,1,61.22,61.23Z"/><path class="cls-33" d="M662.73,2178.58a60.24,60.24,0,0,1-60.25,60.24H529.14a60.24,60.24,0,0,1-60.24-60.24h0a60.24,60.24,0,0,1,60.24-60.25h73.34a60.24,60.24,0,0,1,60.25,60.25Z"/><path class="cls-34" d="M935.14,2178.58a60.24,60.24,0,0,1-60.24,60.24H801.56a60.24,60.24,0,0,1-60.25-60.24h0a60.24,60.24,0,0,1,60.25-60.25H874.9a60.24,60.24,0,0,1,60.24,60.25Z"/><path class="cls-35" d="M1197.08,2178.58a60.24,60.24,0,0,1-60.24,60.24h-73.35a60.24,60.24,0,0,1-60.24-60.24h0a60.24,60.24,0,0,1,60.24-60.25h73.35a60.24,60.24,0,0,1,60.24,60.25Z"/><path class="cls-36" d="M1469.5,2178.58a60.25,60.25,0,0,1-60.25,60.24h-73.34a60.25,60.25,0,0,1-60.25-60.24h0a60.25,60.25,0,0,1,60.25-60.25h73.34a60.25,60.25,0,0,1,60.25,60.25Z"/><path class="cls-37" d="M662.73,2345.6a60.24,60.24,0,0,1-60.25,60.25H529.14a60.24,60.24,0,0,1-60.24-60.25h0a60.24,60.24,0,0,1,60.24-60.24h73.34a60.24,60.24,0,0,1,60.25,60.24Z"/><path class="cls-38" d="M935.14,2345.6a60.24,60.24,0,0,1-60.24,60.25H801.56a60.24,60.24,0,0,1-60.25-60.25h0a60.24,60.24,0,0,1,60.25-60.24H874.9a60.24,60.24,0,0,1,60.24,60.24Z"/><path class="cls-39" d="M1197.08,2345.6a60.24,60.24,0,0,1-60.24,60.25h-73.35a60.24,60.24,0,0,1-60.24-60.25h0a60.24,60.24,0,0,1,60.24-60.24h73.35a60.24,60.24,0,0,1,60.24,60.24Z"/><path class="cls-40" d="M662.73,2529a60.24,60.24,0,0,1-60.25,60.24H529.14A60.24,60.24,0,0,1,468.9,2529h0a60.25,60.25,0,0,1,60.24-60.25h73.34A60.25,60.25,0,0,1,662.73,2529Z"/><path class="cls-41" d="M935.14,2529a60.24,60.24,0,0,1-60.24,60.24H801.56A60.24,60.24,0,0,1,741.31,2529h0a60.25,60.25,0,0,1,60.25-60.25H874.9A60.25,60.25,0,0,1,935.14,2529Z"/><path class="cls-42" d="M1197.08,2529a60.24,60.24,0,0,1-60.24,60.24h-73.35a60.24,60.24,0,0,1-60.24-60.24h0a60.25,60.25,0,0,1,60.24-60.25h73.35a60.25,60.25,0,0,1,60.24,60.25Z"/><rect class="cls-43" x="1286.14" y="2301.69" width="157.16" height="298.61" rx="76.26"/><path class="cls-44" d="M2127.87,1981.4c24.91,2.15,68.13,5.65,102.2,7.15,20.48.9,32.27-1.11,39.06-3.83q0,1.15-.06,2.16a7,7,0,0,1-6.7,6.66,1197.3,1197.3,0,0,1-133.81.13,5,5,0,0,1-4.09-7.53A42,42,0,0,1,2127.87,1981.4Z"/><path class="cls-45" d="M2230.07,1988.55c-34.07-1.5-77.29-5-102.2-7.15,24.49-30,102.2-50.29,102.2-50.29H2252c15.09,21.76,17.28,42.48,17.11,53.61C2262.34,1987.44,2250.55,1989.45,2230.07,1988.55Z"/><path class="cls-46" d="M2255.71,1895.28l-2.05,40.65a9.28,9.28,0,0,1-7.93,8.73,36.22,36.22,0,0,1-16.48-1.37,11,11,0,0,1-7.39-8.44l-7.09-39.57Z"/><path class="cls-47" d="M2540.79,1988.24c10.8-1.5,15.68-7.11,17.73-13.11l0,.16c1.59,6.33-2.09,12.88-9.46,16-8.9,3.77-18.63,4.41-26.18,4.1-8.11-.33-15.55-3.69-19.64-9.06l-.06-.08C2511.36,1990.28,2522.78,1990.75,2540.79,1988.24Z"/><path class="cls-48" d="M2489.87,1895H2508c27.57-.56,44.88,57.59,50.55,80.11-2.05,6-6.93,11.61-17.73,13.11-18,2.51-29.43,2-37.57-2-14.89-19.6-22.28-48.3-25.83-65.06C2473.35,1902.14,2489.87,1895,2489.87,1895Z"/><path class="cls-49" d="M2505.64,1857.3l10.06,40a10.87,10.87,0,0,1-5.65,12.3c-5.62,2.88-13.54,5.92-20.81,5a9.05,9.05,0,0,1-7.4-6l-14.75-42Z"/><path class="cls-50" d="M2517.63,1868.85c-12.5,11.09-53.17,12.56-53.17,12.56-146.52-351.64-206.45-401.6-206.45-401.6,21.16,132.73,3.41,426.57,3.41,426.57-24.18,10.66-55.35,0-55.35,0a2265.1,2265.1,0,0,0-74.81-556.19c99-2.22,151.68-36.11,168.88-49.71C2382.68,1433.56,2517.63,1868.85,2517.63,1868.85Z"/><path class="cls-51" d="M2275,896.09c18.74,93.49,12,260.83,7.61,337.15-1.24,21.45,13.74,51.19,25.84,71.48a6.36,6.36,0,0,1-2.57,9c-20.26,10.42-88.92,42.7-168.49,46.71a11.33,11.33,0,0,1-11.41-8.47c-59-220.39-127.58-361.21-127.58-361.21C2074.08,869.83,2275,896.09,2275,896.09Z"/><path class="cls-52" d="M2248,1471.49a4.7,4.7,0,0,0,4-7.13c-.79-1.3-19.74-31.93-58.09-50.43a4.69,4.69,0,1,0-4.08,8.44c35.75,17.26,54,46.57,54.15,46.87A4.72,4.72,0,0,0,2248,1471.49Z"/><path class="cls-53" d="M2392.55,1164.41c-6,43.55-23.81,91.06-59.39,141.52l-13.53-11s15.62-63.35,6.74-135.25C2348.32,1155.37,2374.25,1159.78,2392.55,1164.41Z"/><path class="cls-54" d="M2254.05,1011.45,2275,896.09s139.87,106.92,117.56,268.32c-18.3-4.63-44.23-9-66.18-4.76C2320,1107.85,2300.88,1051.63,2254.05,1011.45Z"/><path class="cls-55" d="M1998.39,990.7l54,116.28c-8.73,70.2-46.44,100.55-87.1,112.19a246.78,246.78,0,0,0-18.14-75.72C1999.1,1089.81,1998.39,990.7,1998.39,990.7Z"/><path class="cls-56" d="M1947.14,1143.45a246.78,246.78,0,0,1,18.14,75.72c-108.49,42.09-137.19-39.54-137.19-39.54l20.05-3.53C1893.41,1180.87,1925,1166.27,1947.14,1143.45Z"/><path class="cls-57" d="M2048.13,847.14,2074.2,943a18.64,18.64,0,0,0,24.93,12.41,378.86,378.86,0,0,0,37.57-17.16,25.13,25.13,0,0,0,8.86-36.1l-54.2-80.81Z"/><path class="cls-58" d="M1778.37,1115.51l667.9,243.09a51.15,51.15,0,0,1,29.06,69.23l-2,4.46a47.54,47.54,0,0,1-63.24,23.46l-648.52-300Z"/><ellipse class="cls-59" cx="1471.37" cy="969.29" rx="329.71" ry="323.76"/><path class="cls-60" d="M1104.49,969.29c0,199,164.26,360.26,366.88,360.26s366.88-161.3,366.88-360.26S1674,609,1471.37,609,1104.49,770.32,1104.49,969.29Zm53.89,0c0-169.74,140.13-307.34,313-307.34s313,137.6,313,307.34-140.12,307.34-313,307.34S1158.38,1139,1158.38,969.29Z"/><path class="cls-8" d="M1810.35,1013.14l-.21,0a1.67,1.67,0,0,1-1.46-1.88c1.07-8.43,1.83-17,2.25-25.51a1.64,1.64,0,0,1,1.77-1.61,1.69,1.69,0,0,1,1.6,1.77c-.42,8.59-1.19,17.26-2.27,25.77A1.7,1.7,0,0,1,1810.35,1013.14Zm-2.52-100.74a1.67,1.67,0,0,1-1.65-1.39,328.12,328.12,0,0,0-19.55-66.89c-52.25-126.74-176-208.64-315.26-208.64a343.5,343.5,0,0,0-182.58,52.17,1.69,1.69,0,0,1-1.79-2.86,346.82,346.82,0,0,1,184.37-52.68c140.64,0,265.61,82.71,318.38,210.73h0a331.94,331.94,0,0,1,19.74,67.58,1.7,1.7,0,0,1-1.37,2Z"/><path class="cls-61" d="M1991.11,774.34c-.24,1.65,21.74,109.35,21.74,109.35l61.23-13.86-5.67-105.17S1995.08,746.8,1991.11,774.34Z"/><path class="cls-62" d="M2054.64,788.1l7.32,55.13a7.85,7.85,0,0,1,0,2.11c-.62,4.32-3.83,19-18.68,14.82-13.48-3.81-25.84-7.1-34.37-4.49a7.77,7.77,0,0,0-5.34,9c2,9.79,6.91,31.75,14.09,50.19a7.75,7.75,0,0,0,9.41,4.58c11.61-3.39,35.9-11.21,54-22.09a7.76,7.76,0,0,0,3.79-7c-.59-13.91-2.22-56.22-.85-68.08,1.29-11.13,15-17.8,20.88-20.19a7.65,7.65,0,0,0,4.25-4.27c2.75-6.88,6.54-22.82-13.55-29.35a7.78,7.78,0,0,1-4.92-10.06c3-8.29,4.23-20.93-11.31-27.89-15.79-7.08-27.59,1.34-34,8.18a7.76,7.76,0,0,1-9.9,1.17c-1.82-1.15-4.16-1.52-7,.24a7.64,7.64,0,0,1-10.83-3.28c-3.78-7.77-11.49-16.08-27-13.43-27.44,4.69-30.55,35.1-23.31,52.91s36.69,11,51.47,2.05c11.24-6.83,25.81.33,32.15,4.16A7.7,7.7,0,0,1,2054.64,788.1Z"/><path class="cls-63" d="M2086.43,842.36s-11.27-31.59.31-39.32,28.76-3.72,25,19.16C2107,850.66,2086.43,842.36,2086.43,842.36Z"/><path class="cls-64" d="M2325.21,1293l-63.14-5.14-27.34,25.2s6.47,8.94,26.69,3.81,47.93-6.41,47.93-6.41,27.92,12.59,28.26-11Z"/><path class="cls-65" d="M1836.13,1194.57c-5.46,4.26-24.17-4.64-35.62-10.8a13.16,13.16,0,0,1-6.36-15.56c2.75-8.69,7.34-19.9,13-21.32C1816.53,1144.55,1858.63,1177,1836.13,1194.57Z"/><path class="cls-8" d="M2433.09,1445.63a1.69,1.69,0,0,1-.55-3.28c19.18-6.63,29.23-17.41,29.86-32,.64-14.8-8.71-28.56-23.27-34.24l-80.19-31.27a1.69,1.69,0,0,1,1.22-3.15l80.2,31.27c15.9,6.21,26.12,21.29,25.41,37.53s-11.51,28-32.12,35.08A1.82,1.82,0,0,1,2433.09,1445.63Z"/><path class="cls-8" d="M2334.84,1335.29a1.62,1.62,0,0,1-.61-.12l-10.4-4.05a1.69,1.69,0,0,1-1-2.19,1.71,1.71,0,0,1,2.19-1l10.39,4.06a1.69,1.69,0,0,1-.61,3.26Z"/><path class="cls-66" d="M307.21,2716.89s-4.81,27.23-7.17,54.2a18.58,18.58,0,0,0,17.77,20.13c35.91,1.49,112.72,4.4,140.28,3.17a6,6,0,0,0,5.32-8.28h0a13.56,13.56,0,0,0-6.92-7.29l-126.88-58.31Z"/><path class="cls-67" d="M303.27,2700.88l3.86,32.58s22.23,10.35,37.41-1.3l-9.21-36.31Z"/><path class="cls-68" d="M306.17,2088.33c-1.67,8.51-9,424.6,35.51,611.06a6.32,6.32,0,0,1-3.71,7.36,110.08,110.08,0,0,1-36.22,7.37,10.91,10.91,0,0,1-10.81-7.83c-12.72-43.26-73.64-260-81.59-467.08-8.88-231.37,0-7.88,0-7.88l5.21-143Z"/><path class="cls-69" d="M161.26,2731.1s-7.66,13.75-15.07,50.29a11.33,11.33,0,0,0,10,13.57c11.86,1.17,30.11,2.67,44.73,2.57a11.31,11.31,0,0,0,11.19-12.61c-1.62-13.34-6.67-35.22-22.25-52.28Z"/><path class="cls-70" d="M154.53,2689.19l9,49.27s8.93,6.64,26.59,1.83l-4.31-53Z"/><path class="cls-71" d="M130.13,2101.1C93.75,2320.63,138,2643.69,153,2706.92a9.86,9.86,0,0,0,8,7.49c6.67,1.1,17.64,2,28.45-1.14a9,9,0,0,0,6.5-8.32c2-51.12-1.6-364.95,32.29-489A28.21,28.21,0,0,1,239,2200.43l65.79-46.76,5-75.6Z"/><path class="cls-72" d="M361.92,1685.13c-109-1.81-229.29,28.62-229.29,28.62-32.5,189.6-5.69,408.3-5.69,408.3,84.4,22.13,179.6-13.53,179.6-13.53,14-79.25,79.47-302.29,79.47-302.29,53.27-6.61,97.14-22,133.28-42.29-27.57-32-40.56-72.6-46.2-96.63C434.55,1679.28,395.54,1685.68,361.92,1685.13Z"/><path class="cls-73" d="M683.92,1524.56c-10.7-12.94-24.26-6.82-24.26-6.82-16,67.76-100.16,122.71-186.57,149.57,5.64,24,18.63,64.68,46.2,96.63C662.7,1683.3,683.92,1524.56,683.92,1524.56Z"/><path class="cls-74" d="M681.32,1527.85c1.13,3.56-11.85,9-19.49-5.59-.27-7-4.51-36.89-.34-42.58,22.22-30.3,65.3-68.27,65.3-68.27,7.28,7.18,1.28,14.24,1.28,14.24l-20.89,21.77c4.37,7.9,9.7,14.57,12.2,24.12a29.34,29.34,0,0,1-2.92,21.56c-3.67,6.61-8.68,15.2-13.41,21.92C694.1,1527.75,681.32,1527.85,681.32,1527.85Z"/><path class="cls-75" d="M698,1461.55l-19,16.14-6,16.08,17,18.84s5.71-31.9,10-38.8S702,1463.57,698,1461.55Z"/><path class="cls-76" d="M174.44,1819.31l-41.81-105.56S30.8,1782.93,14.06,1870.65c19.24,1.42,54.25,6.42,88.51,23.73C110.1,1853,174.44,1819.31,174.44,1819.31Z"/><path class="cls-77" d="M263.42,1918.63s-114.32,64.61-152.9,9.44c-8-11.45-9.92-22.84-8-33.69-34.26-17.31-69.27-22.31-88.51-23.73-5.05,26.45-2.38,54.57,13.16,83,67.56,123.6,251.33-6.83,251.33-6.83Z"/><path class="cls-78" d="M249.68,2000.37l62.4-217.89a6.36,6.36,0,0,1,5.37-4.58c11.31-1.32,44.06-5,81.88-8.22,41-3.47,88-6.34,120-5a12.83,12.83,0,0,1,11,18.53c-23.37,47-90.07,178.83-124.63,224.06a6.44,6.44,0,0,1-5.14,2.53l-144.77-1.35A6.38,6.38,0,0,1,249.68,2000.37Z"/><path class="cls-79" d="M405.8,1750.79l45.24-7.54a3.25,3.25,0,0,1,3.62,4.22L450.18,1761a3.22,3.22,0,0,1-2.65,2.2L404,1769.06a3.25,3.25,0,0,1-3.59-4l2.78-11.85A3.24,3.24,0,0,1,405.8,1750.79Z"/><path class="cls-80" d="M371.93,1789.09l3.73-19.41a4.48,4.48,0,0,1,3.95-3.62l91.37-9.27a4.48,4.48,0,0,1,4.81,5.51L470,1786.49a4.47,4.47,0,0,1-4.13,3.43l-89.29,4.49A4.48,4.48,0,0,1,371.93,1789.09Z"/><path class="cls-81" d="M264.76,1947.73s-8.69-35.74-5.19-48.42,10.3-29,32.94-25.36,49.35,13.16,49.35,13.16-1.35,16.52-18.55,11.19l10.67,8.25s-1.53,13.23-16.06,6.16l9.92,11s-6.24,10.86-16.93,3.9S295.09,1952,264.76,1947.73Z"/><path class="cls-82" d="M251.5,1596.62l-34.69,100.31a3.62,3.62,0,0,0,1.65,4.36c9.46,5.23,43.52,20.34,84.57-5.69a17,17,0,0,0,7.84-12.16l11.23-86.82Z"/><path class="cls-83" d="M327,1503.73s38.09,71.7,33.21,100.67-52.09,26.88-93.31,3.36l-28.8-77.42Z"/><path class="cls-84" d="M268.69,1569.74a3,3,0,0,0,1.29-4.33c-3.05-4.66-8.77-14.17-10.6-22.5,0,0-6.84-4.38,17.43-10.19s60.48-14.83,68.09-35.49c7.41-20.15-12.08-70.81-43.17-30.44a3,3,0,0,1-4.69,0c-5.1-6.64-18.5-20.41-37.11-12.06-17.41,7.81-19.37,20.57-19.13,27a2.93,2.93,0,0,1-3.48,3c-8.81-1.68-29.93-3.12-39.79,18.55-8.13,17.85-2.85,28,2,32.9a2.94,2.94,0,0,1-1.26,4.89c-5.79,1.78-13.26,6.68-12.51,20.24,1,18.74,22,17.09,27.95,16.23a3,3,0,0,1,2.63.93c5.11,5.66,28.16,29.7,53.1,32.59a3,3,0,0,0,3.13-3.93l-10.8-31.38a3,3,0,0,1,1.61-3.68Z"/><path class="cls-85" d="M273,1574.19s-27.12-18.61-29.1-2.94,24.42,22.7,37.5,16.86Z"/><path class="cls-86" d="M2059.8,2766.22c4.81,0,8.71-2.81,8.71-6.28V2009.11c0-3.46-3.9-6.28-8.71-6.28s-8.71,2.82-8.71,6.28v750.83C2051.09,2763.41,2055,2766.22,2059.8,2766.22Z"/><path class="cls-87" d="M2218.86,2766.22c4.81,0,8.71-2.83,8.71-6.33V2003.63c0-3.5-3.9-6.33-8.71-6.33s-8.71,2.83-8.71,6.33v756.26C2210.15,2763.39,2214.05,2766.22,2218.86,2766.22Z"/><path class="cls-88" d="M2798.88,2772.12a9.68,9.68,0,0,0,3.41-.62c4.42-1.68,6.49-6.25,4.61-10.21L2444.15,1998.7s-20.81-4-18.93,0l365.64,768.68A8.8,8.8,0,0,0,2798.88,2772.12Z"/><path class="cls-89" d="M2523.7,2772.12a9.64,9.64,0,0,0,3.41-.62c4.43-1.68,6.49-6.25,4.61-10.21l-361-759c-1.88-4-21.17-4.72-19.29-.76l364.28,765.83A8.81,8.81,0,0,0,2523.7,2772.12Z"/><rect class="cls-90" x="2039" y="1995.03" width="534.51" height="21.95" rx="2.8" transform="translate(4612.51 4012.01) rotate(180)"/><rect class="cls-91" x="2230.19" y="2140.32" width="275.99" height="15.57"/><rect class="cls-92" x="2312.18" y="2317.45" width="275.99" height="15.57"/><path class="cls-93" d="M2398.15,2510.15h276c4.81,0,8.71-3.49,8.71-7.79s-3.9-7.78-8.71-7.78h-276c-4.81,0-8.71,3.48-8.71,7.78S2393.34,2510.15,2398.15,2510.15Z"/><path class="cls-94" d="M2481.27,2687.28h276c4.81,0,8.71-3.48,8.71-7.79s-3.9-7.78-8.71-7.78h-276c-4.81,0-8.71,3.48-8.71,7.78S2476.46,2687.28,2481.27,2687.28Z"/><path class="cls-95" d="M1986.14,210.12l100.93-83.8a54.2,54.2,0,0,1,34.63-12.5h488.65A54.21,54.21,0,0,1,2664.56,168V335.62a54.21,54.21,0,0,1-54.21,54.21H2121.7a54.2,54.2,0,0,1-34.63-12.5l-100.93-83.8A54.2,54.2,0,0,1,1986.14,210.12Z"/><rect class="cls-8" x="2420.6" y="161.37" width="170.09" height="170.09" rx="41.46"/><polygon class="cls-96" points="2458.23 224.71 2503.85 307.7 2553.06 185.12 2499.36 249.72 2458.23 224.71"/><circle class="cls-97" cx="504.7" cy="1204.86" r="113.7" transform="translate(-767.91 910.12) rotate(-54.23)"/><circle class="cls-98" cx="504.7" cy="1204.86" r="109.92" transform="translate(-704.14 709.77) rotate(-45)"/><path class="cls-8" d="M416.33,1158.28a3.57,3.57,0,0,1-1.63-.48,3.66,3.66,0,0,1-1.37-5,104.71,104.71,0,0,1,96.76-52.94,106.36,106.36,0,0,1,18.85,2.68,3.67,3.67,0,1,1-1.69,7.15,98.83,98.83,0,0,0-17.54-2.48,97.38,97.38,0,0,0-90,49.23A3.66,3.66,0,0,1,416.33,1158.28Z"/><circle class="cls-99" cx="506.97" cy="1207.37" r="93.03" transform="translate(-705.25 712.11) rotate(-45)"/><path class="cls-100" d="M494.3,1276l.52-10.11a82.44,82.44,0,0,1-28-7.61,5.85,5.85,0,0,1-2.88-7.07l3.05-9.28a5.9,5.9,0,0,1,8.2-3.45,68.4,68.4,0,0,0,25.9,6.86c10.15.52,17.9-2.53,18.26-9.59.33-6.36-5.33-10.45-19.24-15-19.84-6.54-33.84-16.06-32.93-33.78.82-16,13.14-27.61,33.61-29.83l.52-10.11a5.89,5.89,0,0,1,6.19-5.59l5.94.3A5.91,5.91,0,0,1,519,1148l-.47,9.07a75.15,75.15,0,0,1,22.27,5.19,5.87,5.87,0,0,1,3.3,7.27l-2.81,8.58a5.87,5.87,0,0,1-7.95,3.57,61.45,61.45,0,0,0-21.85-5.13c-12-.62-15.73,4.19-16,8.66-.29,5.51,6.74,9.66,22.15,15.28,22,7.86,30.83,17.63,30,34.31-.79,15.31-12.85,28.49-35,30.8l-.58,11.32a5.89,5.89,0,0,1-6.19,5.58l-5.94-.3A5.91,5.91,0,0,1,494.3,1276Z"/><circle class="cls-101" cx="604.76" cy="804.1" r="185.56"/><circle class="cls-102" cx="604.76" cy="804.1" r="179.39" transform="translate(-391.46 663.14) rotate(-45)"/><path class="cls-8" d="M460.67,725.54a3.33,3.33,0,0,1-1.53-.45,3.44,3.44,0,0,1-1.28-4.7,168.35,168.35,0,0,1,155.56-85.11,171.18,171.18,0,0,1,30.32,4.31,3.45,3.45,0,0,1-1.59,6.71,162.42,162.42,0,0,0-178.31,77.51A3.42,3.42,0,0,1,460.67,725.54Z"/><circle class="cls-99" cx="608.46" cy="808.21" r="151.83" transform="translate(-393.28 666.97) rotate(-45)"/><path class="cls-103" d="M587.79,920.17l.85-16.5c-17.16-1.57-34-6.5-45.77-12.41a9.55,9.55,0,0,1-4.7-11.54l5-15.16a9.64,9.64,0,0,1,13.38-5.62,111.86,111.86,0,0,0,42.28,11.19c16.56.85,29.2-4.13,29.79-15.64.54-10.39-8.69-17-31.4-24.41C564.82,819.41,542,803.88,543.46,775c1.34-26.11,21.45-45.06,54.85-48.69l.85-16.5a9.63,9.63,0,0,1,10.1-9.12l9.7.5a9.63,9.63,0,0,1,9.12,10.11l-.77,14.81c15.88,1.45,27.33,4.77,36.36,8.47a9.58,9.58,0,0,1,5.38,11.85l-4.58,14a9.6,9.6,0,0,1-13,5.82,100.34,100.34,0,0,0-35.65-8.38c-19.65-1-25.68,6.84-26.06,14.14-.46,9,11,15.77,36.16,24.94,35.93,12.82,50.32,28.76,48.92,56-1.29,25-21,46.49-57.19,50.26l-.95,18.46a9.63,9.63,0,0,1-10.1,9.12l-9.7-.5A9.62,9.62,0,0,1,587.79,920.17Z"/><circle class="cls-104" cx="854.4" cy="1149.36" r="190.94" transform="translate(-562.48 940.79) rotate(-45)"/><circle class="cls-105" cx="854.4" cy="1149.36" r="184.59" transform="translate(-562.48 940.79) rotate(-45)"/><path class="cls-8" d="M706.14,1068.43a3.55,3.55,0,0,1-1.53-.45,3.45,3.45,0,0,1-1.29-4.7,173.13,173.13,0,0,1,160-87.53,175,175,0,0,1,31.17,4.43,3.45,3.45,0,0,1-1.58,6.71,167.26,167.26,0,0,0-183.59,79.8A3.45,3.45,0,0,1,706.14,1068.43Z"/><circle class="cls-99" cx="858.21" cy="1153.59" r="156.23" transform="matrix(0.29, -0.96, 0.96, 0.29, -495.87, 1637.07)"/><path class="cls-106" d="M836.94,1268.79l.87-17c-17.66-1.62-34.95-6.69-47.1-12.77a9.84,9.84,0,0,1-4.83-11.88l5.12-15.59a9.91,9.91,0,0,1,13.77-5.79,115.08,115.08,0,0,0,43.5,11.52c17.05.87,30.05-4.25,30.66-16.1.55-10.69-8.94-17.54-32.31-25.12-33.32-11-56.83-26.95-55.3-56.71,1.38-26.87,22.07-46.37,56.44-50.11l.87-17a9.91,9.91,0,0,1,10.4-9.39l10,.52a9.9,9.9,0,0,1,9.38,10.39l-.78,15.25c16.34,1.49,28.11,4.9,37.4,8.71a9.86,9.86,0,0,1,5.54,12.2l-4.72,14.42a9.87,9.87,0,0,1-13.36,6,103.06,103.06,0,0,0-36.68-8.62c-20.22-1-26.43,7-26.81,14.55-.48,9.25,11.33,16.23,37.2,25.66,37,13.2,51.78,29.6,50.34,57.62-1.32,25.71-21.57,47.84-58.85,51.72l-1,19a9.91,9.91,0,0,1-10.4,9.38l-10-.51A9.9,9.9,0,0,1,836.94,1268.79Z"/><circle class="cls-107" cx="1017.17" cy="758.89" r="152.71" transform="translate(107.11 1643.38) rotate(-80.91)"/><circle class="cls-108" cx="1017.17" cy="758.89" r="147.63" transform="translate(-238.69 941.52) rotate(-45)"/><path class="cls-8" d="M898.55,695.16a3.76,3.76,0,0,1-3.07-5.62A139.45,139.45,0,0,1,1024.35,619a142.12,142.12,0,0,1,25.11,3.57,3.76,3.76,0,1,1-1.72,7.32,133.57,133.57,0,0,0-23.78-3.37,132,132,0,0,0-122,66.72A3.77,3.77,0,0,1,898.55,695.16Z"/><circle class="cls-99" cx="1020.22" cy="762.27" r="124.95" transform="translate(-240.19 944.67) rotate(-45)"/><path class="cls-109" d="M1003.21,854.4l.7-13.57c-14.12-1.3-27.95-5.35-37.67-10.22a7.85,7.85,0,0,1-3.86-9.5l4.09-12.47a7.93,7.93,0,0,1,11-4.62,92.16,92.16,0,0,0,34.8,9.21c13.63.7,24-3.4,24.52-12.88.43-8.54-7.16-14-25.84-20.08-26.66-8.79-45.46-21.56-44.24-45.36,1.11-21.49,17.66-37.09,45.15-40.07l.69-13.58a7.93,7.93,0,0,1,8.32-7.51l8,.41a7.93,7.93,0,0,1,7.5,8.32l-.63,12.19a101.13,101.13,0,0,1,29.92,7,7.88,7.88,0,0,1,4.43,9.76l-3.77,11.53a7.9,7.9,0,0,1-10.69,4.79,82.58,82.58,0,0,0-29.34-6.9c-16.17-.83-21.13,5.64-21.44,11.64-.38,7.4,9.06,13,29.75,20.53,29.58,10.55,41.41,23.66,40.26,46.08-1,20.56-17.25,38.26-47.06,41.36l-.78,15.19a7.93,7.93,0,0,1-8.32,7.51l-8-.41A7.93,7.93,0,0,1,1003.21,854.4Z"/></g></g></svg>